<svg xmlns="http://www.w3.org/2000/svg" xmlns:xlink="http://www.w3.org/1999/xlink" zoomAndPan="magnify" preserveAspectRatio="xMidYMid meet" version="1.0" viewBox="236.04 528.79 337.96 382.5"><defs><clipPath id="id1"><path d="M 236.042969 528.792969 L 574 528.792969 L 574 911.292969 L 236.042969 911.292969 Z M 236.042969 528.792969 " clip-rule="nonzero"/></clipPath></defs><g clip-path="url(#id1)"><path fill="#d99396" d="M 394.339844 594.980469 C 415.359375 608.347656 430.007812 630.621094 432.554688 656.082031 C 440.835938 659.898438 450.386719 662.445312 460.578125 662.445312 C 497.519531 662.445312 527.457031 632.53125 527.457031 595.617188 C 527.457031 558.703125 497.519531 528.792969 460.578125 528.792969 C 424.273438 529.429688 394.339844 558.703125 394.339844 594.980469 Z M 350.390625 731.179688 C 387.332031 731.179688 417.269531 701.265625 417.269531 664.355469 C 417.269531 627.441406 387.332031 597.527344 350.390625 597.527344 C 313.449219 597.527344 283.515625 627.441406 283.515625 664.355469 C 283.515625 701.265625 313.449219 731.179688 350.390625 731.179688 Z M 378.417969 735.636719 L 321.730469 735.636719 C 274.597656 735.636719 236.382812 773.820312 236.382812 820.917969 L 236.382812 891.5625 L 240.839844 892.835938 C 285.425781 906.835938 324.914062 911.292969 356.761719 911.292969 C 419.179688 911.292969 455.484375 893.472656 458.03125 892.199219 L 462.488281 889.652344 L 463.128906 889.652344 L 463.128906 820.917969 C 463.765625 773.820312 425.546875 735.636719 378.417969 735.636719 Z M 488.605469 666.898438 L 432.554688 666.898438 C 431.917969 689.175781 422.363281 709.542969 407.078125 724.179688 C 449.113281 736.90625 479.6875 775.09375 479.6875 820.917969 L 479.6875 841.921875 C 535.097656 840.011719 566.945312 824.101562 568.855469 823.464844 L 573.316406 820.917969 L 573.953125 820.917969 L 573.953125 752.183594 C 573.953125 705.085938 535.734375 666.898438 488.605469 666.898438 Z M 488.605469 666.898438 " fill-opacity="1" fill-rule="nonzero"/></g></svg>