<svg xmlns="http://www.w3.org/2000/svg" xmlns:xlink="http://www.w3.org/1999/xlink" zoomAndPan="magnify" preserveAspectRatio="xMidYMid meet" version="1.0" viewBox="176.46 491.46 456.54 456.54"><defs><clipPath id="id1"><path d="M 176.773438 491.773438 L 633 491.773438 L 633 948 L 176.773438 948 Z M 176.773438 491.773438 " clip-rule="nonzero"/></clipPath></defs><g clip-path="url(#id1)"><path fill="#000000" d="M 217.578125 491.460938 L 591.71875 491.460938 C 593.0625 491.460938 594.40625 491.527344 595.746094 491.65625 C 597.085938 491.789062 598.417969 491.988281 599.738281 492.25 C 601.058594 492.511719 602.363281 492.839844 603.652344 493.230469 C 604.941406 493.621094 606.207031 494.074219 607.453125 494.589844 C 608.695312 495.105469 609.914062 495.679688 611.101562 496.316406 C 612.289062 496.949219 613.441406 497.640625 614.5625 498.390625 C 615.679688 499.136719 616.761719 499.9375 617.800781 500.792969 C 618.84375 501.648438 619.839844 502.550781 620.792969 503.503906 C 621.742188 504.453125 622.648438 505.453125 623.5 506.492188 C 624.355469 507.535156 625.15625 508.613281 625.90625 509.734375 C 626.652344 510.851562 627.34375 512.007812 627.980469 513.195312 C 628.613281 514.382812 629.191406 515.597656 629.703125 516.84375 C 630.21875 518.085938 630.671875 519.351562 631.0625 520.640625 C 631.457031 521.929688 631.78125 523.234375 632.042969 524.554688 C 632.308594 525.875 632.503906 527.207031 632.636719 528.546875 C 632.769531 529.886719 632.835938 531.230469 632.835938 532.578125 L 632.835938 906.71875 C 632.835938 908.0625 632.769531 909.40625 632.636719 910.746094 C 632.503906 912.085938 632.308594 913.417969 632.042969 914.738281 C 631.78125 916.058594 631.457031 917.363281 631.0625 918.652344 C 630.671875 919.941406 630.21875 921.207031 629.703125 922.453125 C 629.191406 923.695312 628.613281 924.914062 627.980469 926.101562 C 627.34375 927.289062 626.652344 928.441406 625.90625 929.5625 C 625.15625 930.679688 624.355469 931.761719 623.5 932.800781 C 622.648438 933.84375 621.742188 934.839844 620.792969 935.792969 C 619.839844 936.742188 618.84375 937.648438 617.800781 938.5 C 616.761719 939.355469 615.679688 940.15625 614.5625 940.90625 C 613.441406 941.652344 612.289062 942.34375 611.101562 942.980469 C 609.914062 943.613281 608.695312 944.191406 607.453125 944.703125 C 606.207031 945.21875 604.941406 945.671875 603.652344 946.0625 C 602.363281 946.457031 601.058594 946.78125 599.738281 947.042969 C 598.417969 947.308594 597.085938 947.503906 595.746094 947.636719 C 594.40625 947.769531 593.0625 947.835938 591.71875 947.835938 L 217.578125 947.835938 C 216.230469 947.835938 214.886719 947.769531 213.546875 947.636719 C 212.207031 947.503906 210.875 947.308594 209.554688 947.042969 C 208.234375 946.78125 206.929688 946.457031 205.640625 946.0625 C 204.351562 945.671875 203.085938 945.21875 201.84375 944.703125 C 200.597656 944.191406 199.382812 943.613281 198.195312 942.980469 C 197.007812 942.34375 195.851562 941.652344 194.734375 940.90625 C 193.613281 940.15625 192.535156 939.355469 191.492188 938.5 C 190.453125 937.648438 189.453125 936.742188 188.503906 935.792969 C 187.550781 934.839844 186.648438 933.84375 185.792969 932.800781 C 184.9375 931.761719 184.136719 930.679688 183.390625 929.5625 C 182.640625 928.441406 181.949219 927.289062 181.316406 926.101562 C 180.679688 924.914062 180.105469 923.695312 179.589844 922.453125 C 179.074219 921.207031 178.621094 919.941406 178.230469 918.652344 C 177.839844 917.363281 177.511719 916.058594 177.25 914.738281 C 176.988281 913.417969 176.789062 912.085938 176.65625 910.746094 C 176.527344 909.40625 176.460938 908.0625 176.460938 906.71875 L 176.460938 532.578125 C 176.460938 531.230469 176.527344 529.886719 176.65625 528.546875 C 176.789062 527.207031 176.988281 525.875 177.25 524.554688 C 177.511719 523.234375 177.839844 521.929688 178.230469 520.640625 C 178.621094 519.351562 179.074219 518.085938 179.589844 516.84375 C 180.105469 515.597656 180.679688 514.382812 181.316406 513.195312 C 181.949219 512.007812 182.640625 510.851562 183.390625 509.734375 C 184.136719 508.613281 184.9375 507.535156 185.792969 506.492188 C 186.648438 505.453125 187.550781 504.453125 188.503906 503.503906 C 189.453125 502.550781 190.453125 501.648438 191.492188 500.792969 C 192.535156 499.9375 193.613281 499.136719 194.734375 498.390625 C 195.851562 497.640625 197.007812 496.949219 198.195312 496.316406 C 199.382812 495.679688 200.597656 495.105469 201.84375 494.589844 C 203.085938 494.074219 204.351562 493.621094 205.640625 493.230469 C 206.929688 492.839844 208.234375 492.511719 209.554688 492.25 C 210.875 491.988281 212.207031 491.789062 213.546875 491.65625 C 214.886719 491.527344 216.230469 491.460938 217.578125 491.460938 Z M 217.578125 491.460938 " fill-opacity="1" fill-rule="nonzero"/></g></svg>