<svg xmlns="http://www.w3.org/2000/svg" xmlns:xlink="http://www.w3.org/1999/xlink" zoomAndPan="magnify" preserveAspectRatio="xMidYMid meet" version="1.0" viewBox="323.18 631.43 163.5 177"><defs><clipPath id="id1"><path d="M 323.183594 631.429688 L 486.683594 631.429688 L 486.683594 808.429688 L 323.183594 808.429688 Z M 323.183594 631.429688 " clip-rule="nonzero"/></clipPath></defs><g clip-path="url(#id1)"><path fill="#545454" d="M 441.4375 631.429688 L 343.664062 631.429688 C 328.679688 631.429688 323.238281 643.640625 323.238281 651.851562 L 323.238281 788.007812 C 323.238281 802.988281 335.453125 808.429688 343.664062 808.429688 L 466.203125 808.429688 C 481.1875 808.429688 486.625 796.214844 486.625 788.007812 L 486.625 669.089844 Z M 364.085938 645.042969 L 398.125 645.042969 L 398.125 672.273438 L 418.546875 672.273438 L 418.546875 645.042969 L 432.164062 645.042969 L 432.164062 679.082031 C 432.164062 684.5625 428.417969 685.808594 425.355469 685.890625 L 370.894531 685.890625 C 365.414062 685.890625 364.167969 682.148438 364.085938 679.082031 Z M 445.777344 794.8125 L 364.085938 794.8125 L 364.085938 740.351562 L 445.777344 740.351562 Z M 473.011719 787.925781 C 472.929688 791.070312 471.6875 794.8125 466.203125 794.8125 L 459.394531 794.8125 L 459.394531 726.738281 L 350.472656 726.738281 L 350.472656 794.8125 L 343.746094 794.8125 C 340.601562 794.730469 336.855469 793.492188 336.855469 788.007812 L 336.855469 651.933594 C 336.9375 648.789062 338.183594 645.042969 343.664062 645.042969 L 350.472656 645.042969 L 350.472656 679.082031 C 350.472656 687.292969 355.910156 699.507812 370.894531 699.507812 L 425.355469 699.507812 C 433.566406 699.507812 445.777344 694.066406 445.777344 679.082031 L 445.777344 652.769531 L 473.011719 675.460938 Z M 432.164062 767.582031 L 377.703125 767.582031 L 377.703125 753.96875 L 432.164062 753.96875 Z M 432.164062 767.582031 " fill-opacity="1" fill-rule="nonzero"/></g></svg>