<svg xmlns="http://www.w3.org/2000/svg" xmlns:xlink="http://www.w3.org/1999/xlink" zoomAndPan="magnify" preserveAspectRatio="xMidYMid meet" version="1.0" viewBox="174.81 666.45 460.5 107.25"><defs><clipPath id="id1"><path d="M 174.808594 666.445312 L 635.308594 666.445312 L 635.308594 773.695312 L 174.808594 773.695312 Z M 174.808594 666.445312 " clip-rule="nonzero"/></clipPath></defs><path fill="#b9cabd" d="M 625.910156 723.832031 C 625.910156 745.46875 607.113281 763.03125 587.0625 763.03125 L 213.972656 763.03125 C 208.332031 763.03125 202.695312 761.777344 197.679688 759.582031 C 204.261719 766.480469 213.34375 770.558594 223.671875 770.558594 L 596.460938 770.558594 C 616.199219 770.558594 632.488281 754.25 632.488281 734.496094 L 632.488281 716.304688 C 632.488281 707.210938 629.042969 699.058594 623.714844 692.785156 C 625.28125 696.863281 625.910156 701.253906 625.910156 705.640625 L 625.910156 723.832031 " fill-opacity="1" fill-rule="nonzero"/><path fill="#b9cabd" d="M 213.972656 759.894531 L 586.4375 759.894531 C 606.171875 759.894531 622.464844 743.589844 622.464844 723.832031 L 622.464844 705.640625 C 622.464844 685.886719 606.171875 669.578125 586.4375 669.578125 L 213.972656 669.578125 C 194.234375 669.578125 177.945312 685.886719 177.945312 705.640625 L 177.945312 723.832031 C 177.945312 743.902344 194.234375 759.894531 213.972656 759.894531 " fill-opacity="1" fill-rule="nonzero"/><g clip-path="url(#id1)"><path fill="#d99396" d="M 619.644531 684.945312 C 612.75 673.96875 600.535156 666.445312 586.4375 666.445312 L 213.972656 666.445312 C 192.355469 666.445312 174.8125 684.003906 174.8125 705.640625 L 174.8125 723.832031 C 174.8125 736.6875 181.078125 747.980469 190.476562 755.191406 C 197.367188 766.167969 209.585938 773.691406 224.03125 773.691406 L 596.148438 773.691406 C 617.765625 773.691406 635.308594 756.132812 635.308594 734.496094 L 635.308594 716.304688 C 635.308594 703.449219 629.042969 692.15625 619.644531 684.945312 M 177.945312 723.832031 L 177.945312 705.640625 C 177.945312 685.886719 194.234375 669.578125 213.972656 669.578125 L 586.4375 669.578125 C 606.171875 669.578125 622.464844 685.886719 622.464844 705.640625 L 622.464844 723.832031 C 622.464844 743.589844 606.171875 759.894531 586.4375 759.894531 L 213.972656 759.894531 C 194.234375 759.894531 177.945312 743.902344 177.945312 723.832031 M 632.488281 734.496094 C 632.488281 754.25 615.882812 770.558594 596.148438 770.558594 L 224.03125 770.558594 C 213.660156 770.558594 204.574219 766.480469 197.996094 759.582031 C 203.007812 761.777344 208.332031 763.03125 214.285156 763.03125 L 586.75 763.03125 C 608.367188 763.03125 625.910156 745.46875 625.910156 723.832031 L 625.910156 705.640625 C 625.910156 701.253906 624.96875 696.863281 623.714844 692.785156 C 629.042969 699.058594 632.488281 707.210938 632.488281 716.304688 L 632.488281 734.496094 " fill-opacity="1" fill-rule="nonzero"/></g></svg>