<svg xmlns="http://www.w3.org/2000/svg" xmlns:xlink="http://www.w3.org/1999/xlink" zoomAndPan="magnify" preserveAspectRatio="xMidYMid meet" version="1.0" viewBox="243 559.54 324 320.99"><defs><clipPath id="id1"><path d="M 252.339844 565.730469 L 567 565.730469 L 567 880.535156 L 252.339844 880.535156 Z M 252.339844 565.730469 " clip-rule="nonzero"/></clipPath><clipPath id="id2"><path d="M 243 559.542969 L 558 559.542969 L 558 875 L 243 875 Z M 243 559.542969 " clip-rule="nonzero"/></clipPath></defs><path fill="#d99396" d="M 565.402344 723.160156 C 565.402344 809.191406 495.679688 878.933594 409.671875 878.933594 C 323.664062 878.933594 253.941406 809.191406 253.941406 723.160156 C 253.941406 637.125 323.664062 567.382812 409.671875 567.382812 C 495.679688 567.382812 565.402344 637.125 565.402344 723.160156 " fill-opacity="1" fill-rule="nonzero"/><g clip-path="url(#id1)"><path fill="#d99396" d="M 409.671875 568.980469 C 324.683594 568.980469 255.539062 638.144531 255.539062 723.160156 C 255.539062 808.171875 324.683594 877.332031 409.671875 877.332031 C 494.660156 877.332031 563.800781 808.171875 563.800781 723.160156 C 563.800781 638.144531 494.660156 568.980469 409.671875 568.980469 Z M 409.671875 880.535156 C 322.921875 880.535156 252.34375 809.9375 252.34375 723.160156 C 252.34375 636.382812 322.921875 565.785156 409.671875 565.785156 C 496.425781 565.785156 567.003906 636.382812 567.003906 723.160156 C 567.003906 809.9375 496.425781 880.535156 409.671875 880.535156 " fill-opacity="1" fill-rule="nonzero"/></g><g clip-path="url(#id2)"><path fill="#b9cabd" d="M 400.328125 562.75 C 315.339844 562.75 246.195312 631.914062 246.195312 716.925781 C 246.195312 801.941406 315.339844 871.101562 400.328125 871.101562 C 485.316406 871.101562 554.460938 801.941406 554.460938 716.925781 C 554.460938 631.914062 485.316406 562.75 400.328125 562.75 Z M 400.328125 874.304688 C 313.578125 874.304688 243 803.703125 243 716.925781 C 243 630.152344 313.578125 559.554688 400.328125 559.554688 C 487.082031 559.554688 557.660156 630.152344 557.660156 716.925781 C 557.660156 803.703125 487.082031 874.304688 400.328125 874.304688 " fill-opacity="1" fill-rule="nonzero"/></g></svg>