<svg xmlns="http://www.w3.org/2000/svg" xmlns:xlink="http://www.w3.org/1999/xlink" zoomAndPan="magnify" preserveAspectRatio="xMidYMid meet" version="1.0" viewBox="240.91 494.65 327.37 442.42"><path fill="#000000" d="M 336.117188 495.054688 C 336.117188 495.054688 239.671875 496.324219 240.921875 583.800781 C 242.171875 671.273438 259.714844 748.625 288.523438 791.726562 C 317.332031 834.832031 391.21875 947.671875 475.148438 936.265625 C 475.148438 936.265625 516.484375 927.386719 547.789062 907.097656 L 446.335938 827.222656 C 446.335938 827.222656 416.277344 846.242188 397.488281 820.882812 C 378.703125 795.523438 319.832031 677.625 319.832031 677.625 C 319.832031 677.625 303.550781 639.585938 339.875 623.105469 Z M 336.117188 495.054688 " fill-opacity="1" fill-rule="nonzero"/><path fill="#000000" d="M 347.390625 495.054688 C 347.390625 495.054688 354.90625 492.527344 368.679688 500.128906 C 382.453125 507.730469 382.457031 514.066406 382.457031 514.066406 L 383.710938 601.554688 C 383.710938 601.554688 379.953125 606.628906 374.945312 611.691406 C 369.9375 616.761719 353.652344 624.375 351.144531 619.300781 C 348.648438 614.234375 347.390625 495.054688 347.390625 495.054688 Z M 347.390625 495.054688 " fill-opacity="1" fill-rule="nonzero"/><path fill="#000000" d="M 454.773438 817.875 L 482.664062 803.132812 C 482.664062 803.132812 488.925781 801.871094 498.941406 808.203125 C 508.964844 814.558594 561.570312 856.398438 561.570312 856.398438 C 561.570312 856.398438 570.335938 864 567.832031 872.875 C 565.328125 881.75 559.066406 900.769531 559.066406 900.769531 Z M 454.773438 817.875 " fill-opacity="1" fill-rule="nonzero"/></svg>