<svg xmlns="http://www.w3.org/2000/svg" xmlns:xlink="http://www.w3.org/1999/xlink" zoomAndPan="magnify" preserveAspectRatio="xMidYMid meet" version="1.0" viewBox="121.5 470.5 567 128.09"><defs><clipPath id="id1"><path d="M 123 535.074219 L 687 535.074219 L 687 597 L 123 597 Z M 123 535.074219 " clip-rule="nonzero"/></clipPath><clipPath id="id2"><path d="M 121.5 535.074219 L 688.5 535.074219 L 688.5 598.589844 L 121.5 598.589844 Z M 121.5 535.074219 " clip-rule="nonzero"/></clipPath></defs><g clip-path="url(#id1)"><path fill="#000000" d="M 686.871094 497.074219 C 686.871094 483.316406 675.691406 472.144531 661.9375 472.144531 L 148.058594 472.144531 C 134.308594 472.144531 123.125 483.316406 123.125 497.074219 L 123.125 571.859375 C 123.125 585.617188 134.308594 596.785156 148.058594 596.785156 L 661.9375 596.785156 C 675.691406 596.785156 686.871094 585.617188 686.871094 571.859375 Z M 686.871094 497.074219 " fill-opacity="1" fill-rule="evenodd"/></g><g clip-path="url(#id2)"><path fill="#000000" d="M 688.5 497.074219 C 688.5 482.410156 676.609375 470.503906 661.9375 470.503906 L 148.058594 470.503906 C 133.386719 470.503906 121.5 482.410156 121.5 497.074219 L 121.5 571.859375 C 121.5 586.519531 133.386719 598.425781 148.058594 598.425781 C 148.058594 598.425781 661.9375 598.425781 661.9375 598.425781 C 676.609375 598.425781 688.5 586.519531 688.5 571.859375 C 688.5 571.859375 688.5 497.074219 688.5 497.074219 Z M 685.246094 497.074219 L 685.246094 571.859375 C 685.246094 584.710938 674.800781 595.144531 661.9375 595.144531 L 148.058594 595.144531 C 135.199219 595.144531 124.753906 584.710938 124.753906 571.859375 C 124.753906 571.859375 124.753906 497.074219 124.753906 497.074219 C 124.753906 484.21875 135.199219 473.785156 148.058594 473.785156 C 148.058594 473.785156 661.9375 473.785156 661.9375 473.785156 C 674.800781 473.785156 685.246094 484.21875 685.246094 497.074219 Z M 685.246094 497.074219 " fill-opacity="1" fill-rule="evenodd"/></g></svg>